<svg width="463" height="425" viewBox="0 0 463 425" fill="none" xmlns="http://www.w3.org/2000/svg">
<path d="M408.091 203H147.909V29H408.091M408.091 0H147.909C131.865 0 119 12.905 119 29V203C119 210.691 122.046 218.068 127.467 223.506C132.889 228.945 140.242 232 147.909 232H249.091V261H220.182V290H335.818V261H306.909V232H408.091C415.758 232 423.111 228.945 428.533 223.506C433.954 218.068 437 210.691 437 203V29C437 12.905 423.991 0 408.091 0Z" fill="#D9D9D9"/>
<path d="M451.5 307.25H398.583V233.167H451.5M451.5 212H398.583C392.71 212 388 216.71 388 222.583V317.833C388 320.64 389.115 323.332 391.1 325.317C393.085 327.302 395.776 328.417 398.583 328.417H451.5C454.307 328.417 456.999 327.302 458.984 325.317C460.968 323.332 462.083 320.64 462.083 317.833V222.583C462.083 216.71 457.321 212 451.5 212Z" fill="#D9D9D9"/>
<rect x="417.5" y="220.5" width="17" height="2" fill="white" stroke="black"/>
<path d="M429.5 317.375C429.5 319.454 427.55 321.25 425 321.25C422.45 321.25 420.5 319.454 420.5 317.375C420.5 315.296 422.45 313.5 425 313.5C427.55 313.5 429.5 315.296 429.5 317.375Z" fill="white" stroke="black"/>
<path d="M429.4 259.802C428.719 256.53 425.681 254.073 422.031 254.073C419.134 254.073 416.617 255.629 415.364 257.905C412.346 258.209 410 260.628 410 263.559C410 266.698 412.697 269.25 416.016 269.25H429.049C431.817 269.25 434.062 267.125 434.062 264.507C434.062 262.003 432.007 259.973 429.4 259.802Z" fill="#CA0000"/>
<path d="M414.543 266.85L412.18 264.741L411.375 265.454L414.543 268.281L421.344 262.213L420.545 261.5L414.543 266.85Z" fill="white"/>
<path d="M414.543 264.59L412.18 262.481L411.375 263.194L414.543 266.021L421.344 259.953L420.545 259.24L414.543 264.59Z" fill="white"/>
<path d="M414.543 262.006L412.18 259.898L411.375 260.611L414.543 263.438L421.344 257.369L420.545 256.656L414.543 262.006Z" fill="white"/>
<path d="M412.576 279.681H411.688C411.676 279.59 411.652 279.508 411.615 279.434C411.579 279.361 411.53 279.298 411.47 279.246C411.409 279.194 411.338 279.154 411.255 279.127C411.173 279.099 411.083 279.085 410.983 279.085C410.807 279.085 410.655 279.128 410.527 279.214C410.4 279.301 410.303 279.425 410.234 279.589C410.167 279.752 410.133 279.95 410.133 280.182C410.133 280.423 410.167 280.626 410.236 280.789C410.306 280.951 410.403 281.074 410.529 281.157C410.655 281.238 410.805 281.279 410.978 281.279C411.075 281.279 411.163 281.267 411.243 281.242C411.323 281.217 411.393 281.181 411.454 281.134C411.515 281.085 411.566 281.026 411.605 280.958C411.645 280.888 411.673 280.809 411.688 280.722L412.576 280.727C412.561 280.888 412.514 281.047 412.436 281.203C412.359 281.359 412.253 281.502 412.118 281.631C411.983 281.759 411.818 281.86 411.624 281.936C411.431 282.012 411.21 282.05 410.96 282.05C410.631 282.05 410.336 281.978 410.076 281.833C409.817 281.687 409.612 281.476 409.462 281.197C409.311 280.919 409.236 280.581 409.236 280.182C409.236 279.782 409.312 279.443 409.465 279.164C409.618 278.886 409.824 278.675 410.085 278.531C410.345 278.386 410.637 278.314 410.96 278.314C411.18 278.314 411.384 278.345 411.571 278.406C411.758 278.467 411.923 278.555 412.065 278.673C412.207 278.789 412.322 278.931 412.411 279.1C412.5 279.27 412.555 279.463 412.576 279.681ZM413.079 282V278.364H413.958V281.286H415.471V282H413.079ZM419.216 280.182C419.216 280.582 419.139 280.921 418.985 281.199C418.831 281.477 418.623 281.689 418.36 281.833C418.099 281.978 417.805 282.05 417.48 282.05C417.153 282.05 416.859 281.977 416.597 281.831C416.336 281.686 416.128 281.474 415.974 281.197C415.821 280.919 415.745 280.581 415.745 280.182C415.745 279.782 415.821 279.443 415.974 279.164C416.128 278.886 416.336 278.675 416.597 278.531C416.859 278.386 417.153 278.314 417.48 278.314C417.805 278.314 418.099 278.386 418.36 278.531C418.623 278.675 418.831 278.886 418.985 279.164C419.139 279.443 419.216 279.782 419.216 280.182ZM418.318 280.182C418.318 279.945 418.284 279.745 418.217 279.582C418.15 279.418 418.054 279.295 417.929 279.211C417.805 279.127 417.655 279.085 417.48 279.085C417.306 279.085 417.156 279.127 417.03 279.211C416.905 279.295 416.809 279.418 416.741 279.582C416.675 279.745 416.642 279.945 416.642 280.182C416.642 280.419 416.675 280.619 416.741 280.782C416.809 280.945 416.905 281.069 417.03 281.153C417.156 281.237 417.306 281.279 417.48 281.279C417.655 281.279 417.805 281.237 417.929 281.153C418.054 281.069 418.15 280.945 418.217 280.782C418.284 280.619 418.318 280.419 418.318 280.182ZM421.929 278.364H422.806V280.709C422.806 280.98 422.742 281.216 422.613 281.418C422.484 281.618 422.304 281.773 422.073 281.883C421.842 281.992 421.574 282.046 421.269 282.046C420.96 282.046 420.69 281.992 420.459 281.883C420.228 281.773 420.049 281.618 419.921 281.418C419.793 281.216 419.729 280.98 419.729 280.709V278.364H420.608V280.633C420.608 280.758 420.635 280.87 420.69 280.968C420.746 281.067 420.823 281.144 420.922 281.199C421.022 281.255 421.137 281.283 421.269 281.283C421.4 281.283 421.515 281.255 421.613 281.199C421.713 281.144 421.79 281.067 421.846 280.968C421.901 280.87 421.929 280.758 421.929 280.633V278.364ZM424.701 282H423.357V278.364H424.7C425.07 278.364 425.389 278.436 425.657 278.582C425.925 278.726 426.132 278.935 426.278 279.207C426.424 279.478 426.496 279.802 426.496 280.18C426.496 280.559 426.424 280.884 426.278 281.157C426.134 281.429 425.927 281.638 425.658 281.783C425.39 281.928 425.071 282 424.701 282ZM424.236 281.251H424.668C424.871 281.251 425.043 281.216 425.184 281.148C425.326 281.078 425.433 280.965 425.506 280.809C425.579 280.651 425.616 280.442 425.616 280.18C425.616 279.918 425.579 279.71 425.506 279.555C425.432 279.399 425.324 279.286 425.181 279.218C425.039 279.148 424.864 279.113 424.655 279.113H424.236V281.251ZM427.965 279.077V278.364H431.038V279.077H429.936V282H429.069V279.077H427.965ZM434.734 280.182C434.734 280.582 434.657 280.921 434.503 281.199C434.349 281.477 434.141 281.689 433.878 281.833C433.616 281.978 433.323 282.05 432.997 282.05C432.671 282.05 432.376 281.977 432.115 281.831C431.853 281.686 431.645 281.474 431.492 281.197C431.339 280.919 431.263 280.581 431.263 280.182C431.263 279.782 431.339 279.443 431.492 279.164C431.645 278.886 431.853 278.675 432.115 278.531C432.376 278.386 432.671 278.314 432.997 278.314C433.323 278.314 433.616 278.386 433.878 278.531C434.141 278.675 434.349 278.886 434.503 279.164C434.657 279.443 434.734 279.782 434.734 280.182ZM433.835 280.182C433.835 279.945 433.802 279.745 433.734 279.582C433.668 279.418 433.572 279.295 433.446 279.211C433.322 279.127 433.172 279.085 432.997 279.085C432.823 279.085 432.674 279.127 432.548 279.211C432.423 279.295 432.326 279.418 432.259 279.582C432.192 279.745 432.159 279.945 432.159 280.182C432.159 280.419 432.192 280.619 432.259 280.782C432.326 280.945 432.423 281.069 432.548 281.153C432.674 281.237 432.823 281.279 432.997 281.279C433.172 281.279 433.322 281.237 433.446 281.153C433.572 281.069 433.668 280.945 433.734 280.782C433.802 280.619 433.835 280.419 433.835 280.182ZM437.665 282H436.321V278.364H437.663C438.034 278.364 438.353 278.436 438.62 278.582C438.889 278.726 439.096 278.935 439.242 279.207C439.388 279.478 439.46 279.802 439.46 280.18C439.46 280.559 439.388 280.884 439.242 281.157C439.098 281.429 438.891 281.638 438.622 281.783C438.354 281.928 438.035 282 437.665 282ZM437.2 281.251H437.631C437.835 281.251 438.007 281.216 438.148 281.148C438.29 281.078 438.397 280.965 438.47 280.809C438.543 280.651 438.58 280.442 438.58 280.18C438.58 279.918 438.543 279.71 438.47 279.555C438.396 279.399 438.288 279.286 438.145 279.218C438.003 279.148 437.827 279.113 437.619 279.113H437.2V281.251ZM443.406 280.182C443.406 280.582 443.329 280.921 443.175 281.199C443.021 281.477 442.813 281.689 442.55 281.833C442.288 281.978 441.995 282.05 441.669 282.05C441.342 282.05 441.048 281.977 440.787 281.831C440.525 281.686 440.317 281.474 440.163 281.197C440.011 280.919 439.934 280.581 439.934 280.182C439.934 279.782 440.011 279.443 440.163 279.164C440.317 278.886 440.525 278.675 440.787 278.531C441.048 278.386 441.342 278.314 441.669 278.314C441.995 278.314 442.288 278.386 442.55 278.531C442.813 278.675 443.021 278.886 443.175 279.164C443.329 279.443 443.406 279.782 443.406 280.182ZM442.507 280.182C442.507 279.945 442.473 279.745 442.406 279.582C442.34 279.418 442.244 279.295 442.118 279.211C441.994 279.127 441.844 279.085 441.669 279.085C441.495 279.085 441.345 279.127 441.22 279.211C441.094 279.295 440.998 279.418 440.93 279.582C440.864 279.745 440.831 279.945 440.831 280.182C440.831 280.419 440.864 280.619 440.93 280.782C440.998 280.945 441.094 281.069 441.22 281.153C441.345 281.237 441.495 281.279 441.669 281.279C441.844 281.279 441.994 281.237 442.118 281.153C442.244 281.069 442.34 280.945 442.406 280.782C442.473 280.619 442.507 280.419 442.507 280.182Z" fill="black"/>
<path d="M62.25 382.636L62.25 234.364L189.75 234.364L189.75 382.636M211 403.818L211 213.182C211 201.426 201.544 192 189.75 192L62.25 192C56.6142 192 51.2092 194.232 47.224 198.204C43.2388 202.176 41 207.564 41 213.182L41 403.818C41 409.436 43.2388 414.824 47.224 418.796C51.2091 422.768 56.6142 425 62.25 425L189.75 425C201.544 425 211 415.468 211 403.818Z" fill="#D9D9D9"/>
<circle cx="126" cy="404" r="9.5" fill="white" stroke="black"/>
<circle cx="125" cy="212" r="3.5" fill="white" stroke="black"/>
<g clip-path="url(#clip0_8_223)">
<path d="M107.334 296.707C106.198 291.323 101.135 287.281 95.0521 287.281C90.2229 287.281 86.0286 289.841 83.9399 293.586C78.9102 294.085 75 298.065 75 302.887C75 308.052 79.495 312.25 85.026 312.25H106.749C111.361 312.25 115.104 308.754 115.104 304.447C115.104 300.327 111.679 296.988 107.334 296.707Z" fill="#CA0000"/>
<path d="M82.5716 308.302L78.6329 304.833L77.2916 306.006L82.5716 310.656L93.9062 300.673L92.5744 299.5L82.5716 308.302Z" fill="white"/>
<path d="M82.5716 304.583L78.6329 301.114L77.2916 302.287L82.5716 306.938L93.9062 296.954L92.5744 295.781L82.5716 304.583Z" fill="white"/>
<path d="M82.5716 300.333L78.6329 296.864L77.2916 298.037L82.5716 302.688L93.9062 292.704L92.5744 291.531L82.5716 300.333Z" fill="white"/>
<path d="M130.582 306.435H128.452C128.423 306.216 128.365 306.018 128.277 305.842C128.189 305.666 128.072 305.516 127.928 305.391C127.783 305.266 127.611 305.17 127.412 305.105C127.216 305.037 126.999 305.003 126.76 305.003C126.337 305.003 125.972 305.107 125.665 305.314C125.361 305.521 125.126 305.821 124.962 306.213C124.8 306.605 124.719 307.08 124.719 307.636C124.719 308.216 124.801 308.702 124.966 309.094C125.134 309.483 125.368 309.777 125.669 309.976C125.973 310.172 126.332 310.27 126.747 310.27C126.98 310.27 127.192 310.24 127.382 310.18C127.575 310.121 127.744 310.034 127.889 309.92C128.037 309.804 128.158 309.663 128.251 309.499C128.348 309.331 128.415 309.142 128.452 308.932L130.582 308.945C130.545 309.331 130.433 309.712 130.246 310.087C130.061 310.462 129.807 310.804 129.483 311.114C129.159 311.42 128.764 311.665 128.298 311.847C127.835 312.028 127.304 312.119 126.705 312.119C125.915 312.119 125.207 311.946 124.582 311.599C123.96 311.25 123.469 310.741 123.108 310.074C122.747 309.406 122.567 308.594 122.567 307.636C122.567 306.676 122.75 305.862 123.116 305.195C123.483 304.527 123.979 304.02 124.604 303.673C125.229 303.327 125.929 303.153 126.705 303.153C127.233 303.153 127.722 303.227 128.17 303.375C128.619 303.52 129.014 303.733 129.355 304.014C129.696 304.293 129.973 304.635 130.186 305.041C130.399 305.447 130.531 305.912 130.582 306.435ZM131.789 312V303.273H133.899V310.287H137.529V312H131.789ZM146.519 307.636C146.519 308.597 146.334 309.411 145.965 310.078C145.596 310.746 145.096 311.253 144.465 311.599C143.837 311.946 143.132 312.119 142.351 312.119C141.567 312.119 140.861 311.945 140.233 311.595C139.605 311.246 139.107 310.739 138.738 310.074C138.371 309.406 138.188 308.594 138.188 307.636C138.188 306.676 138.371 305.862 138.738 305.195C139.107 304.527 139.605 304.02 140.233 303.673C140.861 303.327 141.567 303.153 142.351 303.153C143.132 303.153 143.837 303.327 144.465 303.673C145.096 304.02 145.596 304.527 145.965 305.195C146.334 305.862 146.519 306.676 146.519 307.636ZM144.363 307.636C144.363 307.068 144.282 306.588 144.12 306.196C143.961 305.804 143.73 305.507 143.429 305.305C143.131 305.104 142.772 305.003 142.351 305.003C141.934 305.003 141.574 305.104 141.273 305.305C140.972 305.507 140.74 305.804 140.578 306.196C140.419 306.588 140.34 307.068 140.34 307.636C140.34 308.205 140.419 308.685 140.578 309.077C140.74 309.469 140.972 309.766 141.273 309.967C141.574 310.169 141.934 310.27 142.351 310.27C142.772 310.27 143.131 310.169 143.429 309.967C143.73 309.766 143.961 309.469 144.12 309.077C144.282 308.685 144.363 308.205 144.363 307.636ZM153.03 303.273H155.135V308.902C155.135 309.553 154.98 310.119 154.671 310.602C154.361 311.082 153.929 311.455 153.375 311.719C152.821 311.98 152.178 312.111 151.445 312.111C150.703 312.111 150.056 311.98 149.502 311.719C148.948 311.455 148.517 311.082 148.211 310.602C147.904 310.119 147.75 309.553 147.75 308.902V303.273H149.86V308.719C149.86 309.02 149.925 309.288 150.056 309.524C150.189 309.76 150.375 309.945 150.614 310.078C150.853 310.212 151.13 310.278 151.445 310.278C151.76 310.278 152.036 310.212 152.272 310.078C152.51 309.945 152.696 309.76 152.83 309.524C152.963 309.288 153.03 309.02 153.03 308.719V303.273ZM159.683 312H156.457V303.273H159.679C160.568 303.273 161.334 303.447 161.976 303.797C162.621 304.143 163.118 304.643 163.467 305.297C163.817 305.947 163.991 306.726 163.991 307.632C163.991 308.541 163.817 309.322 163.467 309.976C163.121 310.629 162.625 311.131 161.98 311.48C161.335 311.827 160.57 312 159.683 312ZM158.567 310.202H159.602C160.091 310.202 160.504 310.119 160.842 309.955C161.183 309.787 161.44 309.516 161.614 309.141C161.79 308.763 161.878 308.26 161.878 307.632C161.878 307.004 161.79 306.504 161.614 306.132C161.438 305.757 161.178 305.487 160.834 305.322C160.493 305.155 160.072 305.071 159.572 305.071H158.567V310.202ZM167.516 304.986V303.273H174.892V304.986H172.246V312H170.166V304.986H167.516ZM183.761 307.636C183.761 308.597 183.576 309.411 183.207 310.078C182.838 310.746 182.338 311.253 181.707 311.599C181.079 311.946 180.375 312.119 179.593 312.119C178.809 312.119 178.103 311.945 177.475 311.595C176.848 311.246 176.349 310.739 175.98 310.074C175.613 309.406 175.43 308.594 175.43 307.636C175.43 306.676 175.613 305.862 175.98 305.195C176.349 304.527 176.848 304.02 177.475 303.673C178.103 303.327 178.809 303.153 179.593 303.153C180.375 303.153 181.079 303.327 181.707 303.673C182.338 304.02 182.838 304.527 183.207 305.195C183.576 305.862 183.761 306.676 183.761 307.636ZM181.605 307.636C181.605 307.068 181.524 306.588 181.362 306.196C181.203 305.804 180.973 305.507 180.672 305.305C180.373 305.104 180.014 305.003 179.593 305.003C179.176 305.003 178.816 305.104 178.515 305.305C178.214 305.507 177.983 305.804 177.821 306.196C177.662 306.588 177.582 307.068 177.582 307.636C177.582 308.205 177.662 308.685 177.821 309.077C177.983 309.469 178.214 309.766 178.515 309.967C178.816 310.169 179.176 310.27 179.593 310.27C180.014 310.27 180.373 310.169 180.672 309.967C180.973 309.766 181.203 309.469 181.362 309.077C181.524 308.685 181.605 308.205 181.605 307.636ZM125.886 327H122.661V318.273H125.882C126.771 318.273 127.537 318.447 128.179 318.797C128.824 319.143 129.321 319.643 129.67 320.297C130.02 320.947 130.195 321.726 130.195 322.632C130.195 323.541 130.02 324.322 129.67 324.976C129.324 325.629 128.828 326.131 128.183 326.48C127.538 326.827 126.773 327 125.886 327ZM124.77 325.202H125.805C126.294 325.202 126.707 325.119 127.045 324.955C127.386 324.787 127.643 324.516 127.817 324.141C127.993 323.763 128.081 323.26 128.081 322.632C128.081 322.004 127.993 321.504 127.817 321.132C127.641 320.757 127.381 320.487 127.037 320.322C126.696 320.155 126.276 320.071 125.776 320.071H124.77V325.202ZM139.663 322.636C139.663 323.597 139.479 324.411 139.109 325.078C138.74 325.746 138.24 326.253 137.609 326.599C136.982 326.946 136.277 327.119 135.496 327.119C134.712 327.119 134.006 326.945 133.378 326.595C132.75 326.246 132.251 325.739 131.882 325.074C131.516 324.406 131.332 323.594 131.332 322.636C131.332 321.676 131.516 320.862 131.882 320.195C132.251 319.527 132.75 319.02 133.378 318.673C134.006 318.327 134.712 318.153 135.496 318.153C136.277 318.153 136.982 318.327 137.609 318.673C138.24 319.02 138.74 319.527 139.109 320.195C139.479 320.862 139.663 321.676 139.663 322.636ZM137.507 322.636C137.507 322.068 137.426 321.588 137.264 321.196C137.105 320.804 136.875 320.507 136.574 320.305C136.276 320.104 135.916 320.003 135.496 320.003C135.078 320.003 134.719 320.104 134.418 320.305C134.116 320.507 133.885 320.804 133.723 321.196C133.564 321.588 133.484 322.068 133.484 322.636C133.484 323.205 133.564 323.685 133.723 324.077C133.885 324.469 134.116 324.766 134.418 324.967C134.719 325.169 135.078 325.27 135.496 325.27C135.916 325.27 136.276 325.169 136.574 324.967C136.875 324.766 137.105 324.469 137.264 324.077C137.426 323.685 137.507 323.205 137.507 322.636Z" fill="black"/>
</g>
<rect x="35.1628" y="167.256" width="16.1163" height="42.4884" fill="black"/>
<path d="M81.9626 190.469C78.9764 187.043 75.2437 185.074 70.7252 184.562C70.7252 176.884 68.0533 170.387 62.7096 165.033C57.366 159.677 50.8828 157 43.2209 157C37.0128 157 31.4334 158.851 26.5219 162.631C21.6105 166.411 18.3493 171.254 16.699 177.278C11.7875 178.381 7.70118 180.94 4.59714 184.956C1.49309 188.973 0 193.54 0 198.659C0 204.604 2.12175 209.684 6.32597 213.818C10.5695 218.031 15.7167 220 21.6105 220H68.7606C73.672 220 77.837 218.268 81.2946 214.842C84.713 211.377 86.4419 207.203 86.4419 202.281C86.4419 197.753 84.9488 193.816 81.9626 190.469ZM47.1501 208.188H39.2918V200.312H47.1501V208.188ZM47.1501 192.438H39.2918V168.812H47.1501V192.438Z" fill="#FAD43C"/>
<rect x="262.251" y="104.846" width="50.0649" height="59.7997" fill="black"/>
<path d="M286.588 52C278.866 52 271.459 55.0699 265.999 60.5344C260.538 65.9989 257.471 73.4103 257.471 81.1383V92.7936H251.647C248.558 92.7936 245.596 94.0216 243.411 96.2074C241.227 98.3932 240 101.358 240 104.449V162.725C240 165.817 241.227 168.781 243.411 170.967C245.596 173.153 248.558 174.381 251.647 174.381H321.529C324.618 174.381 327.581 173.153 329.765 170.967C331.949 168.781 333.176 165.817 333.176 162.725V104.449C333.176 101.358 331.949 98.3932 329.765 96.2074C327.581 94.0216 324.618 92.7936 321.529 92.7936H315.706V81.1383C315.706 77.3118 314.953 73.5228 313.489 69.9875C312.026 66.4523 309.881 63.2401 307.177 60.5344C304.474 57.8287 301.264 55.6824 297.731 54.218C294.198 52.7537 290.412 52 286.588 52ZM286.588 63.0725C296.546 63.0725 304.641 71.173 304.641 81.1383V92.7936H268.535V81.1383C268.535 71.173 276.63 63.0725 286.588 63.0725ZM287.695 107.363C293.169 107.363 297.536 108.587 300.681 110.976C303.826 113.423 305.398 116.687 305.398 120.766C305.398 123.331 304.525 125.603 302.836 127.76C301.147 129.857 298.934 131.489 296.255 132.713C294.741 133.587 293.751 134.461 293.227 135.452C292.703 136.501 292.412 137.783 292.412 139.415H280.765C280.765 136.501 281.347 134.52 282.453 133.121C283.676 131.722 285.656 130.091 288.685 128.226C290.199 127.41 291.422 126.361 292.412 125.079C293.227 123.855 293.693 122.398 293.693 120.766C293.693 119.018 293.169 117.736 292.12 116.745C291.072 115.696 289.5 115.23 287.695 115.23C286.122 115.23 284.841 115.638 283.676 116.454C282.745 117.27 282.162 118.494 282.162 120.125H270.69C270.399 116.104 272.029 112.608 275.232 110.51C278.377 108.412 282.512 107.363 287.695 107.363ZM280.765 145.242H292.412V156.898H280.765V145.242Z" fill="#FAD43C"/>
<defs>
<clipPath id="clip0_8_223">
<rect width="120" height="44" fill="white" transform="translate(65 274)"/>
</clipPath>
</defs>
</svg>
