<svg width="422" height="425" viewBox="0 0 422 425" fill="none" xmlns="http://www.w3.org/2000/svg">
<g clip-path="url(#clip0_8_222)">
<path d="M196.438 109.626C194.454 100.23 185.617 93.1771 175 93.1771C166.571 93.1771 159.25 97.6433 155.604 104.179C146.825 105.051 140 111.995 140 120.41C140 129.424 147.846 136.75 157.5 136.75H195.417C203.467 136.75 210 130.65 210 123.133C210 115.944 204.021 110.116 196.438 109.626Z" fill="#CA0000"/>
<path d="M153.216 129.86L146.341 123.806L144 125.853L153.216 133.969L173 116.547L170.675 114.5L153.216 129.86Z" fill="white"/>
<path d="M153.216 123.371L146.341 117.317L144 119.364L153.216 127.479L173 110.057L170.675 108.01L153.216 123.371Z" fill="white"/>
<path d="M153.216 115.954L146.341 109.9L144 111.947L153.216 120.062L173 102.641L170.675 100.594L153.216 115.954Z" fill="white"/>
<path d="M223.728 117.043H221.065C221.029 116.77 220.956 116.523 220.846 116.303C220.736 116.083 220.591 115.895 220.409 115.738C220.228 115.582 220.013 115.463 219.765 115.381C219.52 115.296 219.248 115.254 218.95 115.254C218.421 115.254 217.964 115.383 217.581 115.642C217.201 115.902 216.908 116.276 216.702 116.766C216.5 117.256 216.398 117.849 216.398 118.545C216.398 119.27 216.501 119.877 216.707 120.367C216.917 120.854 217.21 121.221 217.586 121.47C217.966 121.715 218.415 121.837 218.934 121.837C219.225 121.837 219.49 121.8 219.728 121.725C219.969 121.651 220.18 121.543 220.362 121.401C220.546 121.255 220.697 121.079 220.814 120.873C220.935 120.664 221.018 120.428 221.065 120.165L223.728 120.181C223.682 120.664 223.542 121.14 223.307 121.608C223.076 122.077 222.759 122.505 222.354 122.892C221.949 123.276 221.455 123.581 220.873 123.808C220.294 124.036 219.63 124.149 218.881 124.149C217.893 124.149 217.009 123.933 216.228 123.499C215.45 123.062 214.836 122.427 214.385 121.592C213.934 120.758 213.708 119.742 213.708 118.545C213.708 117.345 213.938 116.328 214.396 115.493C214.854 114.659 215.473 114.025 216.255 113.592C217.036 113.158 217.911 112.942 218.881 112.942C219.541 112.942 220.152 113.034 220.713 113.219C221.274 113.4 221.768 113.666 222.194 114.018C222.62 114.366 222.966 114.794 223.233 115.301C223.499 115.809 223.664 116.39 223.728 117.043ZM225.237 124V113.091H227.873V121.859H232.412V124H225.237ZM243.649 118.545C243.649 119.746 243.418 120.763 242.956 121.598C242.494 122.432 241.869 123.066 241.081 123.499C240.296 123.933 239.416 124.149 238.439 124.149C237.459 124.149 236.576 123.931 235.792 123.494C235.007 123.057 234.384 122.423 233.922 121.592C233.464 120.758 233.235 119.742 233.235 118.545C233.235 117.345 233.464 116.328 233.922 115.493C234.384 114.659 235.007 114.025 235.792 113.592C236.576 113.158 237.459 112.942 238.439 112.942C239.416 112.942 240.296 113.158 241.081 113.592C241.869 114.025 242.494 114.659 242.956 115.493C243.418 116.328 243.649 117.345 243.649 118.545ZM240.953 118.545C240.953 117.835 240.852 117.235 240.65 116.745C240.451 116.255 240.163 115.884 239.787 115.632C239.414 115.38 238.965 115.254 238.439 115.254C237.917 115.254 237.468 115.38 237.091 115.632C236.715 115.884 236.426 116.255 236.223 116.745C236.024 117.235 235.925 117.835 235.925 118.545C235.925 119.256 236.024 119.856 236.223 120.346C236.426 120.836 236.715 121.207 237.091 121.459C237.468 121.711 237.917 121.837 238.439 121.837C238.965 121.837 239.414 121.711 239.787 121.459C240.163 121.207 240.451 120.836 240.65 120.346C240.852 119.856 240.953 119.256 240.953 118.545ZM251.788 113.091H254.419V120.127C254.419 120.941 254.226 121.649 253.839 122.253C253.451 122.853 252.912 123.318 252.219 123.648C251.527 123.975 250.722 124.138 249.806 124.138C248.879 124.138 248.07 123.975 247.377 123.648C246.685 123.318 246.147 122.853 245.763 122.253C245.38 121.649 245.188 120.941 245.188 120.127V113.091H247.825V119.898C247.825 120.275 247.906 120.61 248.07 120.905C248.237 121.2 248.469 121.431 248.767 121.598C249.066 121.765 249.412 121.848 249.806 121.848C250.2 121.848 250.545 121.765 250.84 121.598C251.138 121.431 251.37 121.2 251.537 120.905C251.704 120.61 251.788 120.275 251.788 119.898V113.091ZM260.104 124H256.072V113.091H260.099C261.21 113.091 262.167 113.309 262.97 113.746C263.776 114.179 264.397 114.804 264.834 115.621C265.271 116.434 265.489 117.407 265.489 118.54C265.489 119.676 265.271 120.653 264.834 121.47C264.401 122.287 263.781 122.913 262.975 123.35C262.169 123.783 261.212 124 260.104 124ZM258.708 121.752H260.003C260.614 121.752 261.13 121.649 261.553 121.443C261.979 121.234 262.3 120.895 262.517 120.426C262.737 119.953 262.847 119.325 262.847 118.54C262.847 117.755 262.737 117.13 262.517 116.665C262.297 116.196 261.972 115.859 261.542 115.653C261.116 115.444 260.591 115.339 259.966 115.339H258.708V121.752ZM269.895 115.232V113.091H279.115V115.232H275.807V124H273.208V115.232H269.895ZM290.201 118.545C290.201 119.746 289.97 120.763 289.509 121.598C289.047 122.432 288.422 123.066 287.634 123.499C286.849 123.933 285.968 124.149 284.992 124.149C284.012 124.149 283.129 123.931 282.344 123.494C281.56 123.057 280.936 122.423 280.475 121.592C280.017 120.758 279.788 119.742 279.788 118.545C279.788 117.345 280.017 116.328 280.475 115.493C280.936 114.659 281.56 114.025 282.344 113.592C283.129 113.158 284.012 112.942 284.992 112.942C285.968 112.942 286.849 113.158 287.634 113.592C288.422 114.025 289.047 114.659 289.509 115.493C289.97 116.328 290.201 117.345 290.201 118.545ZM287.506 118.545C287.506 117.835 287.405 117.235 287.202 116.745C287.003 116.255 286.716 115.884 286.339 115.632C285.967 115.38 285.517 115.254 284.992 115.254C284.47 115.254 284.021 115.38 283.644 115.632C283.268 115.884 282.978 116.255 282.776 116.745C282.577 117.235 282.478 117.835 282.478 118.545C282.478 119.256 282.577 119.856 282.776 120.346C282.978 120.836 283.268 121.207 283.644 121.459C284.021 121.711 284.47 121.837 284.992 121.837C285.517 121.837 285.967 121.711 286.339 121.459C286.716 121.207 287.003 120.836 287.202 120.346C287.405 119.856 287.506 119.256 287.506 118.545ZM298.996 124H294.963V113.091H298.99C300.102 113.091 301.059 113.309 301.861 113.746C302.668 114.179 303.289 114.804 303.726 115.621C304.163 116.434 304.381 117.407 304.381 118.54C304.381 119.676 304.163 120.653 303.726 121.47C303.293 122.287 302.673 122.913 301.867 123.35C301.061 123.783 300.104 124 298.996 124ZM297.6 121.752H298.894C299.505 121.752 300.022 121.649 300.445 121.443C300.871 121.234 301.192 120.895 301.409 120.426C301.629 119.953 301.739 119.325 301.739 118.54C301.739 117.755 301.629 117.13 301.409 116.665C301.188 116.196 300.864 115.859 300.434 115.653C300.008 115.444 299.482 115.339 298.857 115.339H297.6V121.752ZM316.217 118.545C316.217 119.746 315.986 120.763 315.524 121.598C315.063 122.432 314.438 123.066 313.649 123.499C312.865 123.933 311.984 124.149 311.007 124.149C310.027 124.149 309.145 123.931 308.36 123.494C307.575 123.057 306.952 122.423 306.49 121.592C306.032 120.758 305.803 119.742 305.803 118.545C305.803 117.345 306.032 116.328 306.49 115.493C306.952 114.659 307.575 114.025 308.36 113.592C309.145 113.158 310.027 112.942 311.007 112.942C311.984 112.942 312.865 113.158 313.649 113.592C314.438 114.025 315.063 114.659 315.524 115.493C315.986 116.328 316.217 117.345 316.217 118.545ZM313.522 118.545C313.522 117.835 313.42 117.235 313.218 116.745C313.019 116.255 312.731 115.884 312.355 115.632C311.982 115.38 311.533 115.254 311.007 115.254C310.485 115.254 310.036 115.38 309.66 115.632C309.283 115.884 308.994 116.255 308.791 116.745C308.593 117.235 308.493 117.835 308.493 118.545C308.493 119.256 308.593 119.856 308.791 120.346C308.994 120.836 309.283 121.207 309.66 121.459C310.036 121.711 310.485 121.837 311.007 121.837C311.533 121.837 311.982 121.711 312.355 121.459C312.731 121.207 313.019 120.836 313.218 120.346C313.42 119.856 313.522 119.256 313.522 118.545Z" fill="black"/>
</g>
<path d="M367.091 203H106.909V29H367.091M367.091 0H106.909C90.8645 0 78 12.905 78 29V203C78 210.691 81.0458 218.068 86.4673 223.506C91.8888 228.945 99.2419 232 106.909 232H208.091V261H179.182V290H294.818V261H265.909V232H367.091C374.758 232 382.111 228.945 387.533 223.506C392.954 218.068 396 210.691 396 203V29C396 12.905 382.991 0 367.091 0Z" fill="#D9D9D9"/>
<path d="M410.5 307.25H357.583V233.167H410.5M410.5 212H357.583C351.71 212 347 216.71 347 222.583V317.833C347 320.64 348.115 323.332 350.1 325.317C352.085 327.302 354.776 328.417 357.583 328.417H410.5C413.307 328.417 415.999 327.302 417.984 325.317C419.968 323.332 421.083 320.64 421.083 317.833V222.583C421.083 216.71 416.321 212 410.5 212Z" fill="#D9D9D9"/>
<rect x="376.5" y="220.5" width="17" height="2" fill="white" stroke="black"/>
<path d="M388.5 317.375C388.5 319.454 386.55 321.25 384 321.25C381.45 321.25 379.5 319.454 379.5 317.375C379.5 315.296 381.45 313.5 384 313.5C386.55 313.5 388.5 315.296 388.5 317.375Z" fill="white" stroke="black"/>
<path d="M391.4 258.802C390.719 255.53 387.681 253.073 384.031 253.073C381.134 253.073 378.617 254.629 377.364 256.905C374.346 257.209 372 259.628 372 262.559C372 265.698 374.697 268.25 378.016 268.25H391.049C393.817 268.25 396.062 266.125 396.062 263.507C396.062 261.003 394.007 258.973 391.4 258.802Z" fill="#CA0000"/>
<path d="M376.543 265.85L374.18 263.741L373.375 264.454L376.543 267.281L383.344 261.213L382.545 260.5L376.543 265.85Z" fill="white"/>
<path d="M376.543 263.59L374.18 261.481L373.375 262.194L376.543 265.021L383.344 258.953L382.545 258.24L376.543 263.59Z" fill="white"/>
<path d="M376.543 261.006L374.18 258.898L373.375 259.611L376.543 262.438L383.344 256.369L382.545 255.656L376.543 261.006Z" fill="white"/>
<path d="M370.576 278.681H369.688C369.676 278.59 369.652 278.508 369.615 278.434C369.579 278.361 369.53 278.298 369.47 278.246C369.409 278.194 369.338 278.154 369.255 278.127C369.173 278.099 369.083 278.085 368.983 278.085C368.807 278.085 368.655 278.128 368.527 278.214C368.4 278.301 368.303 278.425 368.234 278.589C368.167 278.752 368.133 278.95 368.133 279.182C368.133 279.423 368.167 279.626 368.236 279.789C368.306 279.951 368.403 280.074 368.529 280.157C368.655 280.238 368.805 280.279 368.978 280.279C369.075 280.279 369.163 280.267 369.243 280.242C369.323 280.217 369.393 280.181 369.454 280.134C369.515 280.085 369.566 280.026 369.605 279.958C369.645 279.888 369.673 279.809 369.688 279.722L370.576 279.727C370.561 279.888 370.514 280.047 370.436 280.203C370.359 280.359 370.253 280.502 370.118 280.631C369.983 280.759 369.818 280.86 369.624 280.936C369.431 281.012 369.21 281.05 368.96 281.05C368.631 281.05 368.336 280.978 368.076 280.833C367.817 280.687 367.612 280.476 367.462 280.197C367.311 279.919 367.236 279.581 367.236 279.182C367.236 278.782 367.312 278.443 367.465 278.164C367.618 277.886 367.824 277.675 368.085 277.531C368.345 277.386 368.637 277.314 368.96 277.314C369.18 277.314 369.384 277.345 369.571 277.406C369.758 277.467 369.923 277.555 370.065 277.673C370.207 277.789 370.322 277.931 370.411 278.1C370.5 278.27 370.555 278.463 370.576 278.681ZM371.079 281V277.364H371.958V280.286H373.471V281H371.079ZM377.216 279.182C377.216 279.582 377.139 279.921 376.985 280.199C376.831 280.477 376.623 280.689 376.36 280.833C376.099 280.978 375.805 281.05 375.48 281.05C375.153 281.05 374.859 280.977 374.597 280.831C374.336 280.686 374.128 280.474 373.974 280.197C373.821 279.919 373.745 279.581 373.745 279.182C373.745 278.782 373.821 278.443 373.974 278.164C374.128 277.886 374.336 277.675 374.597 277.531C374.859 277.386 375.153 277.314 375.48 277.314C375.805 277.314 376.099 277.386 376.36 277.531C376.623 277.675 376.831 277.886 376.985 278.164C377.139 278.443 377.216 278.782 377.216 279.182ZM376.318 279.182C376.318 278.945 376.284 278.745 376.217 278.582C376.15 278.418 376.054 278.295 375.929 278.211C375.805 278.127 375.655 278.085 375.48 278.085C375.306 278.085 375.156 278.127 375.03 278.211C374.905 278.295 374.809 278.418 374.741 278.582C374.675 278.745 374.642 278.945 374.642 279.182C374.642 279.419 374.675 279.619 374.741 279.782C374.809 279.945 374.905 280.069 375.03 280.153C375.156 280.237 375.306 280.279 375.48 280.279C375.655 280.279 375.805 280.237 375.929 280.153C376.054 280.069 376.15 279.945 376.217 279.782C376.284 279.619 376.318 279.419 376.318 279.182ZM379.929 277.364H380.806V279.709C380.806 279.98 380.742 280.216 380.613 280.418C380.484 280.618 380.304 280.773 380.073 280.883C379.842 280.992 379.574 281.046 379.269 281.046C378.96 281.046 378.69 280.992 378.459 280.883C378.228 280.773 378.049 280.618 377.921 280.418C377.793 280.216 377.729 279.98 377.729 279.709V277.364H378.608V279.633C378.608 279.758 378.635 279.87 378.69 279.968C378.746 280.067 378.823 280.144 378.922 280.199C379.022 280.255 379.137 280.283 379.269 280.283C379.4 280.283 379.515 280.255 379.613 280.199C379.713 280.144 379.79 280.067 379.846 279.968C379.901 279.87 379.929 279.758 379.929 279.633V277.364ZM382.701 281H381.357V277.364H382.7C383.07 277.364 383.389 277.436 383.657 277.582C383.925 277.726 384.132 277.935 384.278 278.207C384.424 278.478 384.496 278.802 384.496 279.18C384.496 279.559 384.424 279.884 384.278 280.157C384.134 280.429 383.927 280.638 383.658 280.783C383.39 280.928 383.071 281 382.701 281ZM382.236 280.251H382.668C382.871 280.251 383.043 280.216 383.184 280.148C383.326 280.078 383.433 279.965 383.506 279.809C383.579 279.651 383.616 279.442 383.616 279.18C383.616 278.918 383.579 278.71 383.506 278.555C383.432 278.399 383.324 278.286 383.181 278.218C383.039 278.148 382.864 278.113 382.655 278.113H382.236V280.251ZM385.965 278.077V277.364H389.038V278.077H387.936V281H387.069V278.077H385.965ZM392.734 279.182C392.734 279.582 392.657 279.921 392.503 280.199C392.349 280.477 392.141 280.689 391.878 280.833C391.616 280.978 391.323 281.05 390.997 281.05C390.671 281.05 390.376 280.977 390.115 280.831C389.853 280.686 389.645 280.474 389.492 280.197C389.339 279.919 389.263 279.581 389.263 279.182C389.263 278.782 389.339 278.443 389.492 278.164C389.645 277.886 389.853 277.675 390.115 277.531C390.376 277.386 390.671 277.314 390.997 277.314C391.323 277.314 391.616 277.386 391.878 277.531C392.141 277.675 392.349 277.886 392.503 278.164C392.657 278.443 392.734 278.782 392.734 279.182ZM391.835 279.182C391.835 278.945 391.802 278.745 391.734 278.582C391.668 278.418 391.572 278.295 391.446 278.211C391.322 278.127 391.172 278.085 390.997 278.085C390.823 278.085 390.674 278.127 390.548 278.211C390.423 278.295 390.326 278.418 390.259 278.582C390.192 278.745 390.159 278.945 390.159 279.182C390.159 279.419 390.192 279.619 390.259 279.782C390.326 279.945 390.423 280.069 390.548 280.153C390.674 280.237 390.823 280.279 390.997 280.279C391.172 280.279 391.322 280.237 391.446 280.153C391.572 280.069 391.668 279.945 391.734 279.782C391.802 279.619 391.835 279.419 391.835 279.182ZM395.665 281H394.321V277.364H395.663C396.034 277.364 396.353 277.436 396.62 277.582C396.889 277.726 397.096 277.935 397.242 278.207C397.388 278.478 397.46 278.802 397.46 279.18C397.46 279.559 397.388 279.884 397.242 280.157C397.098 280.429 396.891 280.638 396.622 280.783C396.354 280.928 396.035 281 395.665 281ZM395.2 280.251H395.631C395.835 280.251 396.007 280.216 396.148 280.148C396.29 280.078 396.397 279.965 396.47 279.809C396.543 279.651 396.58 279.442 396.58 279.18C396.58 278.918 396.543 278.71 396.47 278.555C396.396 278.399 396.288 278.286 396.145 278.218C396.003 278.148 395.827 278.113 395.619 278.113H395.2V280.251ZM401.406 279.182C401.406 279.582 401.329 279.921 401.175 280.199C401.021 280.477 400.813 280.689 400.55 280.833C400.288 280.978 399.995 281.05 399.669 281.05C399.342 281.05 399.048 280.977 398.787 280.831C398.525 280.686 398.317 280.474 398.163 280.197C398.011 279.919 397.934 279.581 397.934 279.182C397.934 278.782 398.011 278.443 398.163 278.164C398.317 277.886 398.525 277.675 398.787 277.531C399.048 277.386 399.342 277.314 399.669 277.314C399.995 277.314 400.288 277.386 400.55 277.531C400.813 277.675 401.021 277.886 401.175 278.164C401.329 278.443 401.406 278.782 401.406 279.182ZM400.507 279.182C400.507 278.945 400.473 278.745 400.406 278.582C400.34 278.418 400.244 278.295 400.118 278.211C399.994 278.127 399.844 278.085 399.669 278.085C399.495 278.085 399.345 278.127 399.22 278.211C399.094 278.295 398.998 278.418 398.93 278.582C398.864 278.745 398.831 278.945 398.831 279.182C398.831 279.419 398.864 279.619 398.93 279.782C398.998 279.945 399.094 280.069 399.22 280.153C399.345 280.237 399.495 280.279 399.669 280.279C399.844 280.279 399.994 280.237 400.118 280.153C400.244 280.069 400.34 279.945 400.406 279.782C400.473 279.619 400.507 279.419 400.507 279.182Z" fill="black"/>
<path d="M21.25 382.636L21.25 234.364L148.75 234.364L148.75 382.636M170 403.818L170 213.182C170 201.426 160.544 192 148.75 192L21.25 192C15.6142 192 10.2092 194.232 6.224 198.204C2.23885 202.176 1.45785e-05 207.564 1.43329e-05 213.182L5.99992e-06 403.818C5.75436e-06 409.436 2.23884 414.824 6.22399 418.796C10.2091 422.768 15.6142 425 21.25 425L148.75 425C160.544 425 170 415.468 170 403.818Z" fill="#D9D9D9"/>
<circle cx="85" cy="404" r="9.5" fill="white" stroke="black"/>
<circle cx="84" cy="212" r="3.5" fill="white" stroke="black"/>
<g clip-path="url(#clip1_8_222)">
<path d="M66.334 296.707C65.1977 291.323 60.1346 287.281 54.0521 287.281C49.2229 287.281 45.0286 289.841 42.9399 293.586C37.9102 294.085 34 298.065 34 302.887C34 308.052 38.495 312.25 44.026 312.25H65.7491C70.3611 312.25 74.1042 308.754 74.1042 304.447C74.1042 300.327 70.6786 296.988 66.334 296.707Z" fill="#CA0000"/>
<path d="M41.5717 308.302L37.6329 304.833L36.2917 306.006L41.5717 310.656L52.9063 300.673L51.5744 299.5L41.5717 308.302Z" fill="white"/>
<path d="M41.5717 304.583L37.6329 301.114L36.2917 302.287L41.5717 306.938L52.9063 296.954L51.5744 295.781L41.5717 304.583Z" fill="white"/>
<path d="M41.5717 300.333L37.6329 296.864L36.2917 298.037L41.5717 302.688L52.9063 292.704L51.5744 291.531L41.5717 300.333Z" fill="white"/>
<path d="M89.5824 306.435H87.4517C87.4233 306.216 87.3651 306.018 87.277 305.842C87.1889 305.666 87.0724 305.516 86.9276 305.391C86.7827 305.266 86.6108 305.17 86.4119 305.105C86.2159 305.037 85.9986 305.003 85.7599 305.003C85.3366 305.003 84.9716 305.107 84.6648 305.314C84.3608 305.521 84.1264 305.821 83.9616 306.213C83.7997 306.605 83.7188 307.08 83.7188 307.636C83.7188 308.216 83.8011 308.702 83.9659 309.094C84.1335 309.483 84.3679 309.777 84.669 309.976C84.973 310.172 85.3324 310.27 85.7472 310.27C85.9801 310.27 86.1918 310.24 86.3821 310.18C86.5753 310.121 86.7443 310.034 86.8892 309.92C87.0369 309.804 87.1577 309.663 87.2514 309.499C87.348 309.331 87.4148 309.142 87.4517 308.932L89.5824 308.945C89.5455 309.331 89.4332 309.712 89.2457 310.087C89.0611 310.462 88.8068 310.804 88.483 311.114C88.1591 311.42 87.7642 311.665 87.2983 311.847C86.8352 312.028 86.304 312.119 85.7045 312.119C84.9148 312.119 84.2074 311.946 83.5824 311.599C82.9602 311.25 82.4688 310.741 82.108 310.074C81.7472 309.406 81.5668 308.594 81.5668 307.636C81.5668 306.676 81.75 305.862 82.1165 305.195C82.483 304.527 82.9787 304.02 83.6037 303.673C84.2287 303.327 84.929 303.153 85.7045 303.153C86.233 303.153 86.7216 303.227 87.1705 303.375C87.6193 303.52 88.0142 303.733 88.3551 304.014C88.696 304.293 88.973 304.635 89.1861 305.041C89.3991 305.447 89.5312 305.912 89.5824 306.435ZM90.7894 312V303.273H92.8988V310.287H96.5295V312H90.7894ZM105.519 307.636C105.519 308.597 105.334 309.411 104.965 310.078C104.596 310.746 104.096 311.253 103.465 311.599C102.837 311.946 102.132 312.119 101.351 312.119C100.567 312.119 99.8612 311.945 99.2333 311.595C98.6055 311.246 98.1069 310.739 97.7376 310.074C97.3711 309.406 97.1879 308.594 97.1879 307.636C97.1879 306.676 97.3711 305.862 97.7376 305.195C98.1069 304.527 98.6055 304.02 99.2333 303.673C99.8612 303.327 100.567 303.153 101.351 303.153C102.132 303.153 102.837 303.327 103.465 303.673C104.096 304.02 104.596 304.527 104.965 305.195C105.334 305.862 105.519 306.676 105.519 307.636ZM103.363 307.636C103.363 307.068 103.282 306.588 103.12 306.196C102.961 305.804 102.73 305.507 102.429 305.305C102.131 305.104 101.772 305.003 101.351 305.003C100.934 305.003 100.574 305.104 100.273 305.305C99.9719 305.507 99.7404 305.804 99.5785 306.196C99.4194 306.588 99.3398 307.068 99.3398 307.636C99.3398 308.205 99.4194 308.685 99.5785 309.077C99.7404 309.469 99.9719 309.766 100.273 309.967C100.574 310.169 100.934 310.27 101.351 310.27C101.772 310.27 102.131 310.169 102.429 309.967C102.73 309.766 102.961 309.469 103.12 309.077C103.282 308.685 103.363 308.205 103.363 307.636ZM112.03 303.273H114.135V308.902C114.135 309.553 113.98 310.119 113.671 310.602C113.361 311.082 112.929 311.455 112.375 311.719C111.821 311.98 111.178 312.111 110.445 312.111C109.703 312.111 109.056 311.98 108.502 311.719C107.948 311.455 107.517 311.082 107.211 310.602C106.904 310.119 106.75 309.553 106.75 308.902V303.273H108.86V308.719C108.86 309.02 108.925 309.288 109.056 309.524C109.189 309.76 109.375 309.945 109.614 310.078C109.853 310.212 110.13 310.278 110.445 310.278C110.76 310.278 111.036 310.212 111.272 310.078C111.51 309.945 111.696 309.76 111.83 309.524C111.963 309.288 112.03 309.02 112.03 308.719V303.273ZM118.683 312H115.457V303.273H118.679C119.568 303.273 120.334 303.447 120.976 303.797C121.621 304.143 122.118 304.643 122.467 305.297C122.817 305.947 122.991 306.726 122.991 307.632C122.991 308.541 122.817 309.322 122.467 309.976C122.121 310.629 121.625 311.131 120.98 311.48C120.335 311.827 119.57 312 118.683 312ZM117.567 310.202H118.602C119.091 310.202 119.504 310.119 119.842 309.955C120.183 309.787 120.44 309.516 120.614 309.141C120.79 308.763 120.878 308.26 120.878 307.632C120.878 307.004 120.79 306.504 120.614 306.132C120.438 305.757 120.178 305.487 119.834 305.322C119.493 305.155 119.072 305.071 118.572 305.071H117.567V310.202ZM126.516 304.986V303.273H133.892V304.986H131.246V312H129.166V304.986H126.516ZM142.761 307.636C142.761 308.597 142.576 309.411 142.207 310.078C141.838 310.746 141.338 311.253 140.707 311.599C140.079 311.946 139.375 312.119 138.593 312.119C137.809 312.119 137.103 311.945 136.475 311.595C135.848 311.246 135.349 310.739 134.98 310.074C134.613 309.406 134.43 308.594 134.43 307.636C134.43 306.676 134.613 305.862 134.98 305.195C135.349 304.527 135.848 304.02 136.475 303.673C137.103 303.327 137.809 303.153 138.593 303.153C139.375 303.153 140.079 303.327 140.707 303.673C141.338 304.02 141.838 304.527 142.207 305.195C142.576 305.862 142.761 306.676 142.761 307.636ZM140.605 307.636C140.605 307.068 140.524 306.588 140.362 306.196C140.203 305.804 139.973 305.507 139.672 305.305C139.373 305.104 139.014 305.003 138.593 305.003C138.176 305.003 137.816 305.104 137.515 305.305C137.214 305.507 136.983 305.804 136.821 306.196C136.662 306.588 136.582 307.068 136.582 307.636C136.582 308.205 136.662 308.685 136.821 309.077C136.983 309.469 137.214 309.766 137.515 309.967C137.816 310.169 138.176 310.27 138.593 310.27C139.014 310.27 139.373 310.169 139.672 309.967C139.973 309.766 140.203 309.469 140.362 309.077C140.524 308.685 140.605 308.205 140.605 307.636ZM84.8864 327H81.6605V318.273H84.8821C85.7713 318.273 86.5369 318.447 87.179 318.797C87.8239 319.143 88.321 319.643 88.6705 320.297C89.0199 320.947 89.1946 321.726 89.1946 322.632C89.1946 323.541 89.0199 324.322 88.6705 324.976C88.3239 325.629 87.8281 326.131 87.1832 326.48C86.5384 326.827 85.7727 327 84.8864 327ZM83.7699 325.202H84.8054C85.294 325.202 85.7074 325.119 86.0455 324.955C86.3864 324.787 86.6435 324.516 86.8168 324.141C86.9929 323.763 87.081 323.26 87.081 322.632C87.081 322.004 86.9929 321.504 86.8168 321.132C86.6406 320.757 86.3807 320.487 86.0369 320.322C85.696 320.155 85.2756 320.071 84.7756 320.071H83.7699V325.202ZM98.6634 322.636C98.6634 323.597 98.4787 324.411 98.1094 325.078C97.7401 325.746 97.2401 326.253 96.6094 326.599C95.9815 326.946 95.277 327.119 94.4957 327.119C93.7116 327.119 93.0057 326.945 92.3778 326.595C91.75 326.246 91.2514 325.739 90.8821 325.074C90.5156 324.406 90.3324 323.594 90.3324 322.636C90.3324 321.676 90.5156 320.862 90.8821 320.195C91.2514 319.527 91.75 319.02 92.3778 318.673C93.0057 318.327 93.7116 318.153 94.4957 318.153C95.277 318.153 95.9815 318.327 96.6094 318.673C97.2401 319.02 97.7401 319.527 98.1094 320.195C98.4787 320.862 98.6634 321.676 98.6634 322.636ZM96.5071 322.636C96.5071 322.068 96.4261 321.588 96.2642 321.196C96.1051 320.804 95.875 320.507 95.5739 320.305C95.2756 320.104 94.9162 320.003 94.4957 320.003C94.0781 320.003 93.7188 320.104 93.4176 320.305C93.1165 320.507 92.8849 320.804 92.723 321.196C92.5639 321.588 92.4844 322.068 92.4844 322.636C92.4844 323.205 92.5639 323.685 92.723 324.077C92.8849 324.469 93.1165 324.766 93.4176 324.967C93.7188 325.169 94.0781 325.27 94.4957 325.27C94.9162 325.27 95.2756 325.169 95.5739 324.967C95.875 324.766 96.1051 324.469 96.2642 324.077C96.4261 323.685 96.5071 323.205 96.5071 322.636Z" fill="black"/>
</g>
<defs>
<clipPath id="clip0_8_222">
<rect width="193" height="63" fill="white" transform="translate(140 79)"/>
</clipPath>
<clipPath id="clip1_8_222">
<rect width="120" height="44" fill="white" transform="translate(24 274)"/>
</clipPath>
</defs>
</svg>
