<svg width="190" height="62" viewBox="0 0 190 62" fill="none" xmlns="http://www.w3.org/2000/svg">
<g clip-path="url(#clip0_3_56)">
<path d="M56.4375 30.6259C54.4542 21.2305 45.6167 14.1771 35 14.1771C26.5708 14.1771 19.25 18.6433 15.6042 25.1793C6.825 26.0507 0 32.9951 0 41.4102C0 50.4243 7.84583 57.75 17.5 57.75H55.4167C63.4667 57.75 70 51.6498 70 44.1335C70 36.9439 64.0208 31.1161 56.4375 30.6259Z" fill="#CA0000"/>
<path d="M13.216 50.8601L6.3411 44.8061L4 46.8531L13.216 54.9688L33 37.547L30.6754 35.5L13.216 50.8601Z" fill="white"/>
<path d="M13.216 44.3705L6.3411 38.3165L4 40.3635L13.216 48.4792L33 31.0575L30.6754 29.0104L13.216 44.3705Z" fill="white"/>
<path d="M13.216 36.9539L6.3411 30.8998L4 32.9469L13.216 41.0625L33 23.6408L30.6754 21.5938L13.216 36.9539Z" fill="white"/>
<path d="M83.728 38.0433H81.0646C81.0291 37.7699 80.9563 37.5231 80.8462 37.3029C80.7362 37.0827 80.5906 36.8945 80.4094 36.7383C80.2283 36.582 80.0135 36.4631 79.7649 36.3814C79.5199 36.2962 79.2482 36.2536 78.9499 36.2536C78.4208 36.2536 77.9645 36.3832 77.581 36.6424C77.201 36.9016 76.908 37.2763 76.7021 37.7663C76.4996 38.2564 76.3984 38.8494 76.3984 39.5455C76.3984 40.2699 76.5014 40.8771 76.7074 41.3672C76.9169 41.8537 77.2099 42.2212 77.5863 42.4698C77.9663 42.7148 78.4155 42.8374 78.9339 42.8374C79.2251 42.8374 79.4897 42.8001 79.7276 42.7255C79.9691 42.6509 80.1804 42.5426 80.3615 42.4006C80.5462 42.255 80.6971 42.0792 80.8143 41.8732C80.935 41.6637 81.0185 41.4276 81.0646 41.1648L83.728 41.1808C83.6818 41.6637 83.5415 42.1396 83.3072 42.6083C83.0763 43.0771 82.7585 43.505 82.3537 43.892C81.9489 44.2756 81.4553 44.581 80.8729 44.8082C80.294 45.0355 79.63 45.1491 78.8807 45.1491C77.8935 45.1491 77.0092 44.9325 76.228 44.4993C75.4503 44.0625 74.8359 43.4268 74.3849 42.5923C73.9339 41.7578 73.7085 40.7422 73.7085 39.5455C73.7085 38.3452 73.9375 37.3278 74.3956 36.4933C74.8537 35.6587 75.4734 35.0249 76.2546 34.5916C77.0359 34.1584 77.9112 33.9418 78.8807 33.9418C79.5412 33.9418 80.152 34.0341 80.7131 34.2188C81.2741 34.3999 81.7678 34.6662 82.1939 35.0178C82.62 35.3658 82.9663 35.7937 83.2326 36.3015C83.4989 36.8093 83.6641 37.3899 83.728 38.0433ZM85.2368 45V34.0909H87.8735V42.8587H92.4118V45H85.2368ZM103.649 39.5455C103.649 40.7457 103.418 41.7631 102.956 42.5977C102.494 43.4322 101.869 44.0661 101.081 44.4993C100.296 44.9325 99.4156 45.1491 98.439 45.1491C97.4589 45.1491 96.5764 44.9308 95.7916 44.494C95.0068 44.0572 94.3836 43.4233 93.922 42.5923C93.4639 41.7578 93.2348 40.7422 93.2348 39.5455C93.2348 38.3452 93.4639 37.3278 93.922 36.4933C94.3836 35.6587 95.0068 35.0249 95.7916 34.5916C96.5764 34.1584 97.4589 33.9418 98.439 33.9418C99.4156 33.9418 100.296 34.1584 101.081 34.5916C101.869 35.0249 102.494 35.6587 102.956 36.4933C103.418 37.3278 103.649 38.3452 103.649 39.5455ZM100.953 39.5455C100.953 38.8352 100.852 38.2351 100.65 37.745C100.451 37.255 100.163 36.8839 99.7867 36.6317C99.4138 36.3796 98.9646 36.2536 98.439 36.2536C97.917 36.2536 97.4678 36.3796 97.0914 36.6317C96.7149 36.8839 96.4255 37.255 96.2231 37.745C96.0242 38.2351 95.9248 38.8352 95.9248 39.5455C95.9248 40.2557 96.0242 40.8558 96.2231 41.3459C96.4255 41.8359 96.7149 42.207 97.0914 42.4592C97.4678 42.7113 97.917 42.8374 98.439 42.8374C98.9646 42.8374 99.4138 42.7113 99.7867 42.4592C100.163 42.207 100.451 41.8359 100.65 41.3459C100.852 40.8558 100.953 40.2557 100.953 39.5455ZM111.788 34.0909H114.419V41.1275C114.419 41.9407 114.226 42.6491 113.839 43.2528C113.451 43.853 112.912 44.3182 112.219 44.6484C111.527 44.9751 110.722 45.1385 109.806 45.1385C108.879 45.1385 108.07 44.9751 107.377 44.6484C106.685 44.3182 106.147 43.853 105.763 43.2528C105.38 42.6491 105.188 41.9407 105.188 41.1275V34.0909H107.825V40.8984C107.825 41.2749 107.906 41.6104 108.07 41.9052C108.237 42.1999 108.469 42.4308 108.767 42.5977C109.066 42.7646 109.412 42.848 109.806 42.848C110.2 42.848 110.545 42.7646 110.84 42.5977C111.138 42.4308 111.37 42.1999 111.537 41.9052C111.704 41.6104 111.788 41.2749 111.788 40.8984V34.0909ZM120.104 45H116.072V34.0909H120.099C121.21 34.0909 122.167 34.3093 122.97 34.7461C123.776 35.1793 124.397 35.8043 124.834 36.6211C125.271 37.4343 125.489 38.4073 125.489 39.5401C125.489 40.6765 125.271 41.6531 124.834 42.4698C124.401 43.2866 123.781 43.9134 122.975 44.3501C122.169 44.7834 121.212 45 120.104 45ZM118.708 42.7521H120.003C120.614 42.7521 121.13 42.6491 121.553 42.4432C121.979 42.2337 122.3 41.8945 122.517 41.4258C122.737 40.9535 122.847 40.3249 122.847 39.5401C122.847 38.7553 122.737 38.1303 122.517 37.6651C122.297 37.1964 121.972 36.859 121.542 36.6531C121.116 36.4435 120.591 36.3388 119.966 36.3388H118.708V42.7521ZM129.895 36.2322V34.0909H139.115V36.2322H135.807V45H133.208V36.2322H129.895ZM150.201 39.5455C150.201 40.7457 149.97 41.7631 149.509 42.5977C149.047 43.4322 148.422 44.0661 147.634 44.4993C146.849 44.9325 145.968 45.1491 144.992 45.1491C144.012 45.1491 143.129 44.9308 142.344 44.494C141.56 44.0572 140.936 43.4233 140.475 42.5923C140.017 41.7578 139.788 40.7422 139.788 39.5455C139.788 38.3452 140.017 37.3278 140.475 36.4933C140.936 35.6587 141.56 35.0249 142.344 34.5916C143.129 34.1584 144.012 33.9418 144.992 33.9418C145.968 33.9418 146.849 34.1584 147.634 34.5916C148.422 35.0249 149.047 35.6587 149.509 36.4933C149.97 37.3278 150.201 38.3452 150.201 39.5455ZM147.506 39.5455C147.506 38.8352 147.405 38.2351 147.202 37.745C147.003 37.255 146.716 36.8839 146.339 36.6317C145.967 36.3796 145.517 36.2536 144.992 36.2536C144.47 36.2536 144.021 36.3796 143.644 36.6317C143.268 36.8839 142.978 37.255 142.776 37.745C142.577 38.2351 142.478 38.8352 142.478 39.5455C142.478 40.2557 142.577 40.8558 142.776 41.3459C142.978 41.8359 143.268 42.207 143.644 42.4592C144.021 42.7113 144.47 42.8374 144.992 42.8374C145.517 42.8374 145.967 42.7113 146.339 42.4592C146.716 42.207 147.003 41.8359 147.202 41.3459C147.405 40.8558 147.506 40.2557 147.506 39.5455ZM158.996 45H154.963V34.0909H158.99C160.102 34.0909 161.059 34.3093 161.861 34.7461C162.668 35.1793 163.289 35.8043 163.726 36.6211C164.163 37.4343 164.381 38.4073 164.381 39.5401C164.381 40.6765 164.163 41.6531 163.726 42.4698C163.293 43.2866 162.673 43.9134 161.867 44.3501C161.061 44.7834 160.104 45 158.996 45ZM157.6 42.7521H158.894C159.505 42.7521 160.022 42.6491 160.445 42.4432C160.871 42.2337 161.192 41.8945 161.409 41.4258C161.629 40.9535 161.739 40.3249 161.739 39.5401C161.739 38.7553 161.629 38.1303 161.409 37.6651C161.188 37.1964 160.864 36.859 160.434 36.6531C160.008 36.4435 159.482 36.3388 158.857 36.3388H157.6V42.7521ZM176.217 39.5455C176.217 40.7457 175.986 41.7631 175.524 42.5977C175.063 43.4322 174.438 44.0661 173.649 44.4993C172.865 44.9325 171.984 45.1491 171.007 45.1491C170.027 45.1491 169.145 44.9308 168.36 44.494C167.575 44.0572 166.952 43.4233 166.49 42.5923C166.032 41.7578 165.803 40.7422 165.803 39.5455C165.803 38.3452 166.032 37.3278 166.49 36.4933C166.952 35.6587 167.575 35.0249 168.36 34.5916C169.145 34.1584 170.027 33.9418 171.007 33.9418C171.984 33.9418 172.865 34.1584 173.649 34.5916C174.438 35.0249 175.063 35.6587 175.524 36.4933C175.986 37.3278 176.217 38.3452 176.217 39.5455ZM173.522 39.5455C173.522 38.8352 173.42 38.2351 173.218 37.745C173.019 37.255 172.731 36.8839 172.355 36.6317C171.982 36.3796 171.533 36.2536 171.007 36.2536C170.485 36.2536 170.036 36.3796 169.66 36.6317C169.283 36.8839 168.994 37.255 168.791 37.745C168.593 38.2351 168.493 38.8352 168.493 39.5455C168.493 40.2557 168.593 40.8558 168.791 41.3459C168.994 41.8359 169.283 42.207 169.66 42.4592C170.036 42.7113 170.485 42.8374 171.007 42.8374C171.533 42.8374 171.982 42.7113 172.355 42.4592C172.731 42.207 173.019 41.8359 173.218 41.3459C173.42 40.8558 173.522 40.2557 173.522 39.5455Z" fill="black"/>
</g>
<defs>
<clipPath id="clip0_3_56">
<rect width="190" height="62" fill="white"/>
</clipPath>
</defs>
</svg>
